# xmcd
#
# Track frame offsets: 
#        150
#        17698
#        30395
#        44193
#        57776
#        70376
#        84433
#        98366
#        114426
#        136156
#        149821
#        162055
#        175148
#        187667
#        199673
#        211076
#        224378
#        235801
#        249931
#        261730
#        274268
#        288468
#        299676
#        325588
#
# Disc length: 4517 seconds
#
# Revision: 3
# Processed by: cddbd v1.5.2PL0 Copyright (c) Steve Scherf et al.
# Submitted via: ExactAudioCopy v1.1
#
DISCID=6411a318
DTITLE=Charlie Parker - A Studio Chronicle 1940-1948 [CDE)
DYEAR=2003
DGENRE=Jazz
TTITLE0=Out Of Nowhere (mono)
TTITLE1=Don't Blame Me (mono)
TTITLE2=Drifting On A Reed (mono)
TTITLE3=Quasimodo (mono)
TTITLE4=Charlie's Wig (mono)
TTITLE5=Bongo Beep (mono)
TTITLE6=Crazeology (mono)
TTITLE7=How Deep Is The Ocean (mono)
TTITLE8=The Bird (mono)
TTITLE9=Repetition (mono)
TTITLE10=Another Hair Do (mono)
TTITLE11=Bluebird (mono)
TTITLE12=Klaunstance (mono)
TTITLE13=Bird Gets The Worm (mono)
TTITLE14=Barbados (mono)
TTITLE15=Ah-Leu-Cha (mono)
TTITLE16=Constellation (mono)
TTITLE17=Parker's Mood (mono)
TTITLE18=Perhaps (mono)
TTITLE19=Marmaduke (mono)
TTITLE20=Steeplechase (mono)
TTITLE21=Merry-Go-Round (mono)
TTITLE22=No Noise (Parts 1 and 2) (mono)
TTITLE23=Mango Mangue (mono)
EXTD=YEAR: 2003
EXTT0=
EXTT1=
EXTT2=
EXTT3=
EXTT4=
EXTT5=
EXTT6=
EXTT7=
EXTT8=
EXTT9=
EXTT10=
EXTT11=
EXTT12=
EXTT13=
EXTT14=
EXTT15=
EXTT16=
EXTT17=
EXTT18=
EXTT19=
EXTT20=
EXTT21=
EXTT22=
EXTT23=
PLAYORDER=
